<svg width="1581" height="211" viewBox="0 0 1581 211" fill="none" xmlns="http://www.w3.org/2000/svg">
<path opacity="0.048426" d="M163.288 206L92.44 102.608L160.408 4.39999H107.992L46.36 91.952V4.39999H0.280001V206H46.36V112.688L110.872 206H163.288ZM265.597 210.032C323.485 210.032 370.429 164.528 370.429 105.2C370.429 45.872 323.485 0.367987 265.597 0.367987C207.709 0.367987 160.765 45.872 160.765 105.2C160.765 164.528 207.709 210.032 265.597 210.032ZM265.597 165.104C232.765 165.104 206.845 141.2 206.845 105.2C206.845 69.2 232.765 45.296 265.597 45.296C298.429 45.296 324.349 69.2 324.349 105.2C324.349 141.2 298.429 165.104 265.597 165.104ZM603.974 4.39999H557.894L503.174 93.968L448.454 4.39999H402.374V206H448.454V88.784L500.582 174.32H505.766L557.894 88.784V206H603.974V4.39999ZM797.264 4.39999H644.624V206H690.704V48.752H751.184V206H797.264V4.39999ZM966.096 206H1016.5L947.952 4.39999H889.2L820.656 206H871.056L881.136 174.32H956.016L966.096 206ZM894.96 131.12L918.576 57.104L942.192 131.12H894.96ZM1149.13 4.39999V81.584H1085.77V4.39999H1039.69V206H1085.77V125.936H1149.13V206H1195.21V4.39999H1149.13ZM1348.13 206H1394.21V4.39999H1359.65L1281.89 113.84V4.39999H1235.81V206H1270.37L1348.13 96.56V206ZM1580.19 4.39999H1499.55C1461.24 4.39999 1430.43 35.216 1430.43 73.52C1430.43 99.728 1447.42 123.632 1471.9 134L1424.67 206H1476.51L1519.42 139.76H1534.11V206H1580.19V4.39999ZM1499.55 99.44C1486.88 99.44 1476.51 88.208 1476.51 73.52C1476.51 58.832 1486.88 47.6 1499.55 47.6H1534.11V99.44H1499.55Z" fill="black"/>
</svg>
