<svg width="14" height="12" viewBox="0 0 14 12" fill="none" xmlns="http://www.w3.org/2000/svg">
<path d="M8.95188 0.495625C8.791 0.277093 8.52325 0.277093 8.35675 0.495625C8.19588 0.706773 8.19588 1.05819 8.35675 1.26885L11.3744 5.22948H1.41662C1.1845 5.22998 1 5.47213 1 5.7768C1 6.08146 1.1845 6.33149 1.41662 6.33149C1.41662 6.33149 3.48932 6.33149 4.52567 6.33149C6.80857 6.33149 11.3744 6.33149 11.3744 6.33149L8.35675 10.2847C8.19588 10.5033 8.19588 10.8552 8.35675 11.0658C8.52325 11.2844 8.79138 11.2844 8.95188 11.0658L12.6839 6.16759C12.8504 5.95645 12.8504 5.60502 12.6839 5.39437L8.95188 0.495625Z" fill="white" stroke="white" stroke-width="0.5"/>
</svg>
