<svg width="1095" height="136" viewBox="0 0 1095 136" fill="none" xmlns="http://www.w3.org/2000/svg">
<path fill-rule="evenodd" clip-rule="evenodd" d="M67.705 135.41C48.1126 135.41 31.9305 128.9 19.1583 115.88C6.38603 102.859 0 86.8014 0 67.705C0 48.4846 6.38603 32.3955 19.1583 19.4373C31.9305 6.47903 48.1126 0 67.705 0C79.4852 0 90.3663 2.75901 100.348 8.27712C110.331 13.7952 118.112 21.2663 123.692 30.6905L101.558 43.5246C98.3334 37.6965 93.7454 33.1395 87.7933 29.8534C81.8412 26.5674 75.1451 24.9244 67.705 24.9244C55.0568 24.9244 44.8577 28.8924 37.1075 36.8285C29.3574 44.7647 25.4824 55.0568 25.4824 67.705C25.4824 80.2292 29.3574 90.4593 37.1075 98.3955C44.8577 106.332 55.0568 110.3 67.705 110.3C75.1451 110.3 81.8722 108.657 87.8863 105.371C93.9004 102.084 98.4574 97.5895 101.558 91.8854L123.692 104.72C118.112 114.144 110.362 121.615 100.441 127.133C90.5213 132.651 79.6092 135.41 67.705 135.41ZM247.756 115.88C234.611 128.9 218.615 135.41 199.767 135.41C180.919 135.41 164.954 128.869 151.871 115.787C138.789 102.704 132.248 86.6774 132.248 67.705C132.248 48.7326 138.789 32.7055 151.871 19.6233C164.954 6.54103 180.919 0 199.767 0C218.615 0 234.611 6.54103 247.756 19.6233C260.9 32.7055 267.472 48.7326 267.472 67.705C267.472 86.6774 260.9 102.735 247.756 115.88ZM169.821 98.3955C177.881 106.332 187.863 110.3 199.767 110.3C211.671 110.3 221.653 106.301 229.713 98.3025C237.774 90.3043 241.804 80.1052 241.804 67.705C241.804 55.3048 237.774 45.0747 229.713 37.0145C221.653 28.9544 211.671 24.9244 199.767 24.9244C187.863 24.9244 177.881 28.9544 169.821 37.0145C161.76 45.0747 157.73 55.3048 157.73 67.705C157.73 80.1052 161.76 90.3353 169.821 98.3955ZM311.183 108.254H360.845V132.806H285.514V2.60404H311.183V108.254ZM401.022 108.254H450.685V132.806H375.354V2.60404H401.022V108.254ZM490.861 108.254H545.732V132.806H465.193V2.60404H544.802V27.1564H490.861V54.8708H540.152V79.0512H490.861V108.254ZM624.597 135.41C605.005 135.41 588.823 128.9 576.05 115.88C563.278 102.859 556.892 86.8014 556.892 67.705C556.892 48.4846 563.278 32.3955 576.05 19.4373C588.823 6.47903 605.005 0 624.597 0C636.377 0 647.258 2.75901 657.241 8.27712C667.223 13.7952 675.004 21.2663 680.584 30.6905L658.45 43.5246C655.226 37.6965 650.638 33.1395 644.685 29.8534C638.733 26.5674 632.037 24.9244 624.597 24.9244C611.949 24.9244 601.75 28.8924 594 36.8285C586.25 44.7647 582.375 55.0568 582.375 67.705C582.375 80.2292 586.25 90.4593 594 98.3955C601.75 106.332 611.949 110.3 624.597 110.3C632.037 110.3 638.764 108.657 644.779 105.371C650.793 102.084 655.35 97.5895 658.45 91.8854L680.584 104.72C675.004 114.144 667.254 121.615 657.334 127.133C647.414 132.651 636.501 135.41 624.597 135.41ZM781.956 2.60404V27.1564H746.801V132.806H721.133V27.1564H686.164V2.60404H781.956ZM796.278 2.60404H821.946V132.806H796.278V2.60404ZM955.682 115.88C942.538 128.9 926.542 135.41 907.693 135.41C888.845 135.41 872.88 128.869 859.798 115.787C846.715 102.704 840.174 86.6774 840.174 67.705C840.174 48.7326 846.715 32.7055 859.798 19.6233C872.88 6.54103 888.845 0 907.693 0C926.542 0 942.538 6.54103 955.682 19.6233C968.826 32.7055 975.398 48.7326 975.398 67.705C975.398 86.6774 968.826 102.735 955.682 115.88ZM877.747 98.3955C885.807 106.332 895.789 110.3 907.693 110.3C919.598 110.3 929.58 106.301 937.64 98.3025C945.7 90.3043 949.73 80.1052 949.73 67.705C949.73 55.3048 945.7 45.0747 937.64 37.0145C929.58 28.9544 919.598 24.9244 907.693 24.9244C895.789 24.9244 885.807 28.9544 877.747 37.0145C869.687 45.0747 865.657 55.3048 865.657 67.705C865.657 80.1052 869.687 90.3353 877.747 98.3955ZM1068.77 2.60404H1094.44V132.806H1074.91L1019.11 53.1968V132.806H993.441V2.60404H1012.97L1068.77 82.0272V2.60404Z" fill="white"/>
</svg>
