<svg width="1849" height="136" viewBox="0 0 1849 136" fill="none" xmlns="http://www.w3.org/2000/svg">
<path d="M67.445 135.59C47.9583 135.59 31.8633 129.115 19.16 116.165C6.45667 103.215 0.105 87.2433 0.105 68.25C0.105 49.1333 6.45667 33.1617 19.16 20.335C31.8633 7.38499 47.9583 0.909991 67.445 0.909991C79.1617 0.909991 89.9533 3.68499 99.82 9.23499C109.81 14.6617 117.58 22.0617 123.13 31.435L101.115 44.2C97.9083 38.4033 93.345 33.9017 87.425 30.695C81.505 27.365 74.845 25.7 67.445 25.7C54.865 25.7 44.69 29.6467 36.92 37.54C29.2733 45.4333 25.45 55.67 25.45 68.25C25.45 80.7067 29.2733 90.8817 36.92 98.775C44.69 106.668 54.865 110.615 67.445 110.615C74.845 110.615 81.505 109.012 87.425 105.805C93.4683 102.475 98.0317 97.9733 101.115 92.3L123.13 105.065C117.58 114.438 109.872 121.9 100.005 127.45C90.1383 132.877 79.285 135.59 67.445 135.59ZM252.513 116.165C239.44 129.115 223.53 135.59 204.783 135.59C186.037 135.59 170.127 129.115 157.053 116.165C144.103 103.092 137.628 87.12 137.628 68.25C137.628 49.38 144.103 33.47 157.053 20.52C170.127 7.44666 186.037 0.909991 204.783 0.909991C223.53 0.909991 239.44 7.44666 252.513 20.52C265.587 33.47 272.123 49.38 272.123 68.25C272.123 87.12 265.587 103.092 252.513 116.165ZM174.998 98.775C183.015 106.668 192.943 110.615 204.783 110.615C216.623 110.615 226.552 106.668 234.568 98.775C242.585 90.7583 246.593 80.5833 246.593 68.25C246.593 55.9167 242.585 45.7417 234.568 37.725C226.552 29.7083 216.623 25.7 204.783 25.7C192.943 25.7 183.015 29.7083 174.998 37.725C166.982 45.7417 162.973 55.9167 162.973 68.25C162.973 80.5833 166.982 90.7583 174.998 98.775ZM321.597 108.58H370.992V133H296.067V3.49999H321.597V108.58ZM417.026 108.58H466.421V133H391.496V3.49999H417.026V108.58ZM512.454 108.58H567.029V133H486.924V3.49999H566.104V27.92H512.454V55.485H561.479V79.535H512.454V108.58ZM651.542 135.59C632.055 135.59 615.96 129.115 603.257 116.165C590.553 103.215 584.202 87.2433 584.202 68.25C584.202 49.1333 590.553 33.1617 603.257 20.335C615.96 7.38499 632.055 0.909991 651.542 0.909991C663.258 0.909991 674.05 3.68499 683.917 9.23499C693.907 14.6617 701.677 22.0617 707.227 31.435L685.212 44.2C682.005 38.4033 677.442 33.9017 671.522 30.695C665.602 27.365 658.942 25.7 651.542 25.7C638.962 25.7 628.787 29.6467 621.017 37.54C613.37 45.4333 609.547 55.67 609.547 68.25C609.547 80.7067 613.37 90.8817 621.017 98.775C628.787 106.668 638.962 110.615 651.542 110.615C658.942 110.615 665.602 109.012 671.522 105.805C677.565 102.475 682.128 97.9733 685.212 92.3L707.227 105.065C701.677 114.438 693.968 121.9 684.102 127.45C674.235 132.877 663.382 135.59 651.542 135.59ZM814.023 3.49999V27.92H779.058V133H753.528V27.92H718.748V3.49999H814.023ZM834.275 3.49999H859.805V133H834.275V3.49999ZM998.742 116.165C985.669 129.115 969.759 135.59 951.012 135.59C932.265 135.59 916.355 129.115 903.282 116.165C890.332 103.092 883.857 87.12 883.857 68.25C883.857 49.38 890.332 33.47 903.282 20.52C916.355 7.44666 932.265 0.909991 951.012 0.909991C969.759 0.909991 985.669 7.44666 998.742 20.52C1011.82 33.47 1018.35 49.38 1018.35 68.25C1018.35 87.12 1011.82 103.092 998.742 116.165ZM921.227 98.775C929.244 106.668 939.172 110.615 951.012 110.615C962.852 110.615 972.78 106.668 980.797 98.775C988.814 90.7583 992.822 80.5833 992.822 68.25C992.822 55.9167 988.814 45.7417 980.797 37.725C972.78 29.7083 962.852 25.7 951.012 25.7C939.172 25.7 929.244 29.7083 921.227 37.725C913.21 45.7417 909.202 55.9167 909.202 68.25C909.202 80.5833 913.21 90.7583 921.227 98.775ZM1117.22 3.49999H1142.75V133H1123.33L1067.83 53.82V133H1042.3V3.49999H1061.72L1117.22 82.495V3.49999ZM1407.3 108.58H1456.7V133H1381.77V3.49999H1407.3V108.58ZM1564.07 133L1556.3 109.69H1504.68L1496.91 133H1469.35L1514.67 3.49999H1546.31L1591.82 133H1564.07ZM1512.82 85.825H1548.34L1530.58 32.915L1512.82 85.825ZM1685.31 3.49999H1710.84V133H1691.42L1635.92 53.82V133H1610.39V3.49999H1629.81L1685.31 82.495V3.49999ZM1792.3 3.49999C1810.06 3.49999 1824.86 9.72833 1836.7 22.185C1848.66 34.6417 1854.64 49.9967 1854.64 68.25C1854.64 86.5033 1848.66 101.858 1836.7 114.315C1824.86 126.772 1810.06 133 1792.3 133H1740.87V3.49999H1792.3ZM1792.3 108.58C1803.52 108.58 1812.65 104.88 1819.68 97.48C1826.71 89.9567 1830.22 80.2133 1830.22 68.25C1830.22 56.2867 1826.71 46.605 1819.68 39.205C1812.65 31.6817 1803.52 27.92 1792.3 27.92H1766.4V108.58H1792.3ZM1918.27 135.59C1905.44 135.59 1894.65 132.753 1885.89 127.08C1877.14 121.283 1870.97 113.452 1867.39 103.585L1889.22 90.82C1894.28 104.017 1904.21 110.615 1919.01 110.615C1926.16 110.615 1931.4 109.32 1934.73 106.73C1938.06 104.14 1939.73 100.872 1939.73 96.925C1939.73 92.3617 1937.69 88.8467 1933.62 86.38C1929.55 83.79 1922.28 81.015 1911.79 78.055C1906 76.3283 1901.06 74.6017 1896.99 72.875C1893.05 71.1483 1889.04 68.8667 1884.97 66.03C1881.02 63.07 1878 59.37 1875.9 54.93C1873.81 50.49 1872.76 45.31 1872.76 39.39C1872.76 27.6733 1876.89 18.3617 1885.15 11.455C1893.54 4.42499 1903.59 0.909991 1915.31 0.909991C1925.79 0.909991 1934.98 3.49999 1942.87 8.67999C1950.89 13.7367 1957.12 20.8283 1961.56 29.955L1940.1 42.35C1934.92 31.25 1926.66 25.7 1915.31 25.7C1910.01 25.7 1905.81 26.9333 1902.73 29.4C1899.77 31.7433 1898.29 34.8267 1898.29 38.65C1898.29 42.72 1899.95 46.05 1903.28 48.64C1906.74 51.1067 1913.27 53.82 1922.89 56.78C1926.84 58.0133 1929.8 59 1931.77 59.74C1933.87 60.3567 1936.65 61.405 1940.1 62.885C1943.68 64.2417 1946.39 65.5367 1948.24 66.77C1950.21 68.0033 1952.43 69.6683 1954.9 71.765C1957.37 73.8617 1959.22 76.02 1960.45 78.24C1961.81 80.46 1962.92 83.1733 1963.78 86.38C1964.77 89.4633 1965.26 92.855 1965.26 96.555C1965.26 108.518 1960.88 118.015 1952.12 125.045C1943.49 132.075 1932.21 135.59 1918.27 135.59ZM2048.43 135.59C2028.94 135.59 2012.85 129.115 2000.14 116.165C1987.44 103.215 1981.09 87.2433 1981.09 68.25C1981.09 49.1333 1987.44 33.1617 2000.14 20.335C2012.85 7.38499 2028.94 0.909991 2048.43 0.909991C2060.14 0.909991 2070.94 3.68499 2080.8 9.23499C2090.79 14.6617 2098.56 22.0617 2104.11 31.435L2082.1 44.2C2078.89 38.4033 2074.33 33.9017 2068.41 30.695C2062.49 27.365 2055.83 25.7 2048.43 25.7C2035.85 25.7 2025.67 29.6467 2017.9 37.54C2010.26 45.4333 2006.43 55.67 2006.43 68.25C2006.43 80.7067 2010.26 90.8817 2017.9 98.775C2025.67 106.668 2035.85 110.615 2048.43 110.615C2055.83 110.615 2062.49 109.012 2068.41 105.805C2074.45 102.475 2079.01 97.9733 2082.1 92.3L2104.11 105.065C2098.56 114.438 2090.85 121.9 2080.99 127.45C2071.12 132.877 2060.27 135.59 2048.43 135.59ZM2208.5 133L2200.73 109.69H2149.12L2141.35 133H2113.78L2159.11 3.49999H2190.74L2236.25 133H2208.5ZM2157.26 85.825H2192.78L2175.02 32.915L2157.26 85.825ZM2303.11 3.49999C2315.57 3.49999 2326.05 7.69333 2334.56 16.08C2343.07 24.4667 2347.33 34.765 2347.33 46.975C2347.33 59.185 2343.07 69.4833 2334.56 77.87C2326.05 86.2567 2315.57 90.45 2303.11 90.45H2280.36V133H2254.83V3.49999H2303.11ZM2303.11 66.585C2308.54 66.585 2313.04 64.735 2316.62 61.035C2320.19 57.2117 2321.98 52.525 2321.98 46.975C2321.98 41.3017 2320.19 36.615 2316.62 32.915C2313.04 29.215 2308.54 27.365 2303.11 27.365H2280.36V66.585H2303.11ZM2395.48 108.58H2450.05V133H2369.95V3.49999H2449.13V27.92H2395.48V55.485H2444.5V79.535H2395.48V108.58Z" fill="white"/>
</svg>
