<svg width="1849" height="136" viewBox="0 0 1849 136" fill="none" xmlns="http://www.w3.org/2000/svg">
<path d="M67.445 135.59C47.9583 135.59 31.8633 129.115 19.16 116.165C6.45667 103.215 0.105 87.2433 0.105 68.25C0.105 49.1333 6.45667 33.1617 19.16 20.335C31.8633 7.38499 47.9583 0.909991 67.445 0.909991C79.1617 0.909991 89.9533 3.68499 99.82 9.23499C109.81 14.6617 117.58 22.0617 123.13 31.435L101.115 44.2C97.9083 38.4033 93.345 33.9017 87.425 30.695C81.505 27.365 74.845 25.7 67.445 25.7C54.865 25.7 44.69 29.6467 36.92 37.54C29.2733 45.4333 25.45 55.67 25.45 68.25C25.45 80.7067 29.2733 90.8817 36.92 98.775C44.69 106.668 54.865 110.615 67.445 110.615C74.845 110.615 81.505 109.012 87.425 105.805C93.4683 102.475 98.0317 97.9733 101.115 92.3L123.13 105.065C117.58 114.438 109.872 121.9 100.005 127.45C90.1383 132.877 79.285 135.59 67.445 135.59ZM252.513 116.165C239.44 129.115 223.53 135.59 204.783 135.59C186.037 135.59 170.127 129.115 157.053 116.165C144.103 103.092 137.628 87.12 137.628 68.25C137.628 49.38 144.103 33.47 157.053 20.52C170.127 7.44666 186.037 0.909991 204.783 0.909991C223.53 0.909991 239.44 7.44666 252.513 20.52C265.587 33.47 272.123 49.38 272.123 68.25C272.123 87.12 265.587 103.092 252.513 116.165ZM174.998 98.775C183.015 106.668 192.943 110.615 204.783 110.615C216.623 110.615 226.552 106.668 234.568 98.775C242.585 90.7583 246.593 80.5833 246.593 68.25C246.593 55.9167 242.585 45.7417 234.568 37.725C226.552 29.7083 216.623 25.7 204.783 25.7C192.943 25.7 183.015 29.7083 174.998 37.725C166.982 45.7417 162.973 55.9167 162.973 68.25C162.973 80.5833 166.982 90.7583 174.998 98.775ZM370.992 3.49999H396.522V133H377.097L321.597 53.82V133H296.067V3.49999H315.492L370.992 82.495V3.49999ZM487.965 135.59C468.478 135.59 452.383 129.115 439.68 116.165C426.976 103.215 420.625 87.2433 420.625 68.25C420.625 49.1333 426.976 33.1617 439.68 20.335C452.383 7.38499 468.478 0.909991 487.965 0.909991C499.681 0.909991 510.473 3.68499 520.34 9.23499C530.33 14.6617 538.1 22.0617 543.65 31.435L521.635 44.2C518.428 38.4033 513.865 33.9017 507.945 30.695C502.025 27.365 495.365 25.7 487.965 25.7C475.385 25.7 465.21 29.6467 457.44 37.54C449.793 45.4333 445.97 55.67 445.97 68.25C445.97 80.7067 449.793 90.8817 457.44 98.775C465.21 106.668 475.385 110.615 487.965 110.615C495.365 110.615 502.025 109.012 507.945 105.805C513.988 102.475 518.551 97.9733 521.635 92.3L543.65 105.065C538.1 114.438 530.391 121.9 520.525 127.45C510.658 132.877 499.805 135.59 487.965 135.59ZM590.863 108.58H645.438V133H565.333V3.49999H644.513V27.92H590.863V55.485H639.888V79.535H590.863V108.58ZM717.718 3.49999C730.175 3.49999 740.658 7.69333 749.168 16.08C757.678 24.4667 761.933 34.765 761.933 46.975C761.933 59.185 757.678 69.4833 749.168 77.87C740.658 86.2567 730.175 90.45 717.718 90.45H694.963V133H669.433V3.49999H717.718ZM717.718 66.585C723.145 66.585 727.647 64.735 731.223 61.035C734.8 57.2117 736.588 52.525 736.588 46.975C736.588 41.3017 734.8 36.615 731.223 32.915C727.647 29.215 723.145 27.365 717.718 27.365H694.963V66.585H717.718ZM867.861 3.49999V27.92H832.896V133H807.366V27.92H772.586V3.49999H867.861ZM1158.53 135.59C1139.05 135.59 1122.95 129.115 1110.25 116.165C1097.54 103.215 1091.19 87.2433 1091.19 68.25C1091.19 49.1333 1097.54 33.1617 1110.25 20.335C1122.95 7.38499 1139.05 0.909991 1158.53 0.909991C1170.25 0.909991 1181.04 3.68499 1190.91 9.23499C1200.9 14.6617 1208.67 22.0617 1214.22 31.435L1192.2 44.2C1189 38.4033 1184.43 33.9017 1178.51 30.695C1172.59 27.365 1165.93 25.7 1158.53 25.7C1145.95 25.7 1135.78 29.6467 1128.01 37.54C1120.36 45.4333 1116.54 55.67 1116.54 68.25C1116.54 80.7067 1120.36 90.8817 1128.01 98.775C1135.78 106.668 1145.95 110.615 1158.53 110.615C1165.93 110.615 1172.59 109.012 1178.51 105.805C1184.56 102.475 1189.12 97.9733 1192.2 92.3L1214.22 105.065C1208.67 114.438 1200.96 121.9 1191.09 127.45C1181.23 132.877 1170.37 135.59 1158.53 135.59ZM1343.6 116.165C1330.53 129.115 1314.62 135.59 1295.87 135.59C1277.12 135.59 1261.21 129.115 1248.14 116.165C1235.19 103.092 1228.72 87.12 1228.72 68.25C1228.72 49.38 1235.19 33.47 1248.14 20.52C1261.21 7.44666 1277.12 0.909991 1295.87 0.909991C1314.62 0.909991 1330.53 7.44666 1343.6 20.52C1356.67 33.47 1363.21 49.38 1363.21 68.25C1363.21 87.12 1356.67 103.092 1343.6 116.165ZM1266.09 98.775C1274.1 106.668 1284.03 110.615 1295.87 110.615C1307.71 110.615 1317.64 106.668 1325.66 98.775C1333.67 90.7583 1337.68 80.5833 1337.68 68.25C1337.68 55.9167 1333.67 45.7417 1325.66 37.725C1317.64 29.7083 1307.71 25.7 1295.87 25.7C1284.03 25.7 1274.1 29.7083 1266.09 37.725C1258.07 45.7417 1254.06 55.9167 1254.06 68.25C1254.06 80.5833 1258.07 90.7583 1266.09 98.775ZM1412.68 108.58H1462.08V133H1387.15V3.49999H1412.68V108.58ZM1508.11 108.58H1557.51V133H1482.58V3.49999H1508.11V108.58ZM1603.54 108.58H1658.12V133H1578.01V3.49999H1657.19V27.92H1603.54V55.485H1652.57V79.535H1603.54V108.58ZM1742.63 135.59C1723.14 135.59 1707.05 129.115 1694.34 116.165C1681.64 103.215 1675.29 87.2433 1675.29 68.25C1675.29 49.1333 1681.64 33.1617 1694.34 20.335C1707.05 7.38499 1723.14 0.909991 1742.63 0.909991C1754.35 0.909991 1765.14 3.68499 1775 9.23499C1784.99 14.6617 1792.76 22.0617 1798.31 31.435L1776.3 44.2C1773.09 38.4033 1768.53 33.9017 1762.61 30.695C1756.69 27.365 1750.03 25.7 1742.63 25.7C1730.05 25.7 1719.87 29.6467 1712.1 37.54C1704.46 45.4333 1700.63 55.67 1700.63 68.25C1700.63 80.7067 1704.46 90.8817 1712.1 98.775C1719.87 106.668 1730.05 110.615 1742.63 110.615C1750.03 110.615 1756.69 109.012 1762.61 105.805C1768.65 102.475 1773.22 97.9733 1776.3 92.3L1798.31 105.065C1792.76 114.438 1785.06 121.9 1775.19 127.45C1765.32 132.877 1754.47 135.59 1742.63 135.59ZM1905.11 3.49999V27.92H1870.15V133H1844.62V27.92H1809.84V3.49999H1905.11ZM1925.36 3.49999H1950.89V133H1925.36V3.49999ZM2089.83 116.165C2076.76 129.115 2060.85 135.59 2042.1 135.59C2023.35 135.59 2007.44 129.115 1994.37 116.165C1981.42 103.092 1974.94 87.12 1974.94 68.25C1974.94 49.38 1981.42 33.47 1994.37 20.52C2007.44 7.44666 2023.35 0.909991 2042.1 0.909991C2060.85 0.909991 2076.76 7.44666 2089.83 20.52C2102.9 33.47 2109.44 49.38 2109.44 68.25C2109.44 87.12 2102.9 103.092 2089.83 116.165ZM2012.31 98.775C2020.33 106.668 2030.26 110.615 2042.1 110.615C2053.94 110.615 2063.87 106.668 2071.88 98.775C2079.9 90.7583 2083.91 80.5833 2083.91 68.25C2083.91 55.9167 2079.9 45.7417 2071.88 37.725C2063.87 29.7083 2053.94 25.7 2042.1 25.7C2030.26 25.7 2020.33 29.7083 2012.31 37.725C2004.3 45.7417 2000.29 55.9167 2000.29 68.25C2000.29 80.5833 2004.3 90.7583 2012.31 98.775ZM2208.31 3.49999H2233.84V133H2214.41L2158.91 53.82V133H2133.38V3.49999H2152.81L2208.31 82.495V3.49999Z" fill="white"/>
</svg>
