<svg width="831" height="132" viewBox="0 0 831 132" fill="none" xmlns="http://www.w3.org/2000/svg">
<path d="M65.92 131.52C88.96 131.52 109.12 120.18 119.92 102.36L95.08 87.96C89.68 97.68 78.7 103.44 65.92 103.44C43.6 103.44 29.2 88.5 29.2 66C29.2 43.5 43.6 28.56 65.92 28.56C78.7 28.56 89.5 34.32 95.08 44.04L119.92 29.64C108.94 11.82 88.78 0.479992 65.92 0.479992C27.94 0.479992 0.4 28.92 0.4 66C0.4 103.08 27.94 131.52 65.92 131.52ZM195.779 131.52C231.959 131.52 261.299 103.08 261.299 66C261.299 28.92 231.959 0.479992 195.779 0.479992C159.599 0.479992 130.259 28.92 130.259 66C130.259 103.08 159.599 131.52 195.779 131.52ZM195.779 103.44C175.259 103.44 159.059 88.5 159.059 66C159.059 43.5 175.259 28.56 195.779 28.56C216.299 28.56 232.499 43.5 232.499 66C232.499 88.5 216.299 103.44 195.779 103.44ZM351.715 2.99999V71.4L303.115 2.99999H281.515V129H310.315V60.6L358.915 129H380.515V2.99999H351.715ZM466.221 131.52C489.261 131.52 509.421 120.18 520.221 102.36L495.381 87.96C489.981 97.68 479.001 103.44 466.221 103.44C443.901 103.44 429.501 88.5 429.501 66C429.501 43.5 443.901 28.56 466.221 28.56C479.001 28.56 489.801 34.32 495.381 44.04L520.221 29.64C509.241 11.82 489.081 0.479992 466.221 0.479992C428.241 0.479992 400.701 28.92 400.701 66C400.701 103.08 428.241 131.52 466.221 131.52ZM566.518 101.28V78.96H611.518V51.6H566.518V30.72H616.018V2.99999H537.718V129H616.918V101.28H566.518ZM684.867 2.99999H637.167V129H665.967V89.4H684.867C709.707 89.4 728.967 70.14 728.967 46.2C728.967 22.26 709.707 2.99999 684.867 2.99999ZM684.867 62.4H665.967V30H684.867C693.687 30 700.167 37.02 700.167 46.2C700.167 55.38 693.687 62.4 684.867 62.4ZM830.181 2.99999H736.581V30.72H768.981V129H797.781V30.72H830.181V2.99999Z" fill="white"/>
</svg>
