<svg width="1026" height="136" viewBox="0 0 1026 136" fill="none" xmlns="http://www.w3.org/2000/svg">
<path fill-rule="evenodd" clip-rule="evenodd" d="M25.668 108.252H75.33V132.804H0V2.604H25.668V108.252ZM177.258 132.804L169.446 109.368H117.552L109.74 132.804H82.026L127.596 2.604H159.402L205.158 132.804H177.258ZM125.736 85.374H161.448L143.592 32.178L125.736 85.374ZM293.136 2.604H318.804V132.804H299.274L243.474 53.196V132.804H217.806V2.604H237.336L293.136 82.026V2.604ZM394.692 2.604C412.548 2.604 427.459 8.86594 439.425 21.39C451.391 33.9141 457.374 49.3519 457.374 67.704C457.374 86.0561 451.391 101.494 439.425 114.018C427.459 126.542 412.548 132.804 394.692 132.804H342.984V2.604H394.692ZM394.692 108.252C405.976 108.252 415.152 104.501 422.22 96.999C429.288 89.497 432.822 79.7321 432.822 67.704C432.822 55.6759 429.288 45.911 422.22 38.409C415.152 30.907 405.976 27.156 394.692 27.156H368.652V108.252H394.692ZM515.406 135.408C502.51 135.408 491.66 132.525 482.856 126.759C474.052 120.993 467.852 113.15 464.256 103.23L486.204 90.396C491.288 103.664 501.27 110.298 516.15 110.298C523.342 110.298 528.612 108.996 531.96 106.392C535.308 103.788 536.982 100.502 536.982 96.534C536.982 91.946 534.936 88.381 530.844 85.839C526.752 83.297 519.436 80.538 508.896 77.562C503.068 75.826 498.139 74.09 494.109 72.354C490.079 70.618 486.049 68.293 482.019 65.379C477.989 62.465 474.92 58.776 472.812 54.312C470.704 49.848 469.65 44.64 469.65 38.688C469.65 26.9079 473.835 17.515 482.205 10.509C490.575 3.50296 500.65 0 512.43 0C522.97 0 532.239 2.57297 540.237 7.719C548.235 12.865 554.466 20.026 558.93 29.202L537.354 41.664C532.146 30.5039 523.838 24.924 512.43 24.924C507.098 24.924 502.913 26.133 499.875 28.551C496.837 30.969 495.318 34.1 495.318 37.944C495.318 42.036 497.023 45.353 500.433 47.895C503.843 50.437 510.384 53.196 520.056 56.172C524.024 57.412 527.031 58.373 529.077 59.055C531.123 59.737 533.913 60.791 537.447 62.217C540.981 63.643 543.709 64.976 545.631 66.216C547.553 67.456 549.754 69.13 552.234 71.238C554.714 73.346 556.605 75.516 557.907 77.748C559.209 79.98 560.325 82.677 561.255 85.839C562.185 89.001 562.65 92.442 562.65 96.162C562.65 108.19 558.279 117.738 549.537 124.806C540.795 131.874 529.418 135.408 515.406 135.408ZM640.212 135.408C620.62 135.408 604.438 128.898 591.666 115.878C578.894 102.858 572.508 86.8001 572.508 67.704C572.508 48.4839 578.894 32.3951 591.666 19.437C604.438 6.47894 620.62 0 640.212 0C651.992 0 662.873 2.75897 672.855 8.277C682.837 13.795 690.618 21.266 696.198 30.69L674.064 43.524C670.84 37.696 666.252 33.139 660.3 29.853C654.348 26.567 647.652 24.924 640.212 24.924C627.564 24.924 617.365 28.892 609.615 36.828C601.865 44.764 597.99 55.0559 597.99 67.704C597.99 80.2281 601.865 90.458 609.615 98.394C617.365 106.33 627.564 110.298 640.212 110.298C647.652 110.298 654.379 108.655 660.393 105.369C666.407 102.083 670.964 97.588 674.064 91.884L696.198 104.718C690.618 114.142 682.868 121.613 672.948 127.131C663.028 132.649 652.116 135.408 640.212 135.408ZM795.15 132.804L787.338 109.368H735.444L727.632 132.804H699.918L745.488 2.604H777.294L823.05 132.804H795.15ZM743.628 85.374H779.34L761.484 32.178L743.628 85.374ZM884.244 2.604C896.768 2.604 907.308 6.81996 915.864 15.252C924.42 23.684 928.698 34.0379 928.698 46.314C928.698 58.5901 924.42 68.944 915.864 77.376C907.308 85.808 896.768 90.024 884.244 90.024H861.366V132.804H835.698V2.604H884.244ZM884.244 66.03C889.7 66.03 894.226 64.139 897.822 60.357C901.418 56.575 903.216 51.894 903.216 46.314C903.216 40.61 901.418 35.898 897.822 32.178C894.226 28.458 889.7 26.598 884.244 26.598H861.366V66.03H884.244ZM971.106 108.252H1025.98V132.804H945.438V2.604H1025.05V27.156H971.106V54.87H1020.4V79.05H971.106V108.252Z" fill="url(#paint0_linear)"/>
<defs>
<linearGradient id="paint0_linear" x1="795.984" y1="135.408" x2="795.984" y2="60.7086" gradientUnits="userSpaceOnUse">
<stop stop-color="#E1E1E1"/>
<stop offset="1" stop-color="white"/>
</linearGradient>
</defs>
</svg>
