<svg width="1920" height="211" viewBox="0 0 1920 211" fill="none" xmlns="http://www.w3.org/2000/svg">
<path opacity="0.0484" d="M143.92 4.39999V206H97.84V48.752H37.36V206H-8.72V4.39999H143.92ZM260.913 4.39999C280.689 4.39999 297.393 11.12 311.025 24.56C324.657 38 331.473 54.32 331.473 73.52C331.473 92.72 324.657 109.04 311.025 122.48C297.393 135.92 280.689 142.64 260.913 142.64H230.673V206H184.593V4.39999H260.913ZM260.913 99.44C268.017 99.44 273.873 96.944 278.481 91.952C283.089 86.96 285.393 80.816 285.393 73.52C285.393 66.224 283.089 60.08 278.481 55.088C273.873 50.096 268.017 47.6 260.913 47.6H230.673V99.44H260.913ZM529.557 179.792C509.205 199.952 484.437 210.032 455.253 210.032C426.069 210.032 401.301 199.952 380.949 179.792C360.597 159.632 350.421 134.768 350.421 105.2C350.421 75.632 360.597 50.768 380.949 30.608C401.301 10.448 426.069 0.367987 455.253 0.367987C484.437 0.367987 509.205 10.448 529.557 30.608C549.909 50.768 560.085 75.632 560.085 105.2C560.085 134.768 549.909 159.632 529.557 179.792ZM413.205 148.4C424.533 159.536 438.549 165.104 455.253 165.104C471.957 165.104 485.877 159.536 497.013 148.4C508.341 137.264 514.005 122.864 514.005 105.2C514.005 87.536 508.341 73.136 497.013 62C485.877 50.864 471.957 45.296 455.253 45.296C438.549 45.296 424.533 50.864 413.205 62C402.069 73.136 396.501 87.536 396.501 105.2C396.501 122.864 402.069 137.264 413.205 148.4ZM638.11 161.648H718.75V206H592.03V4.39999H717.31V48.752H638.11V82.16H710.11V125.936H638.11V161.648ZM913.757 206H861.341L796.829 112.688V206H750.749V4.39999H796.829V91.952L858.461 4.39999H910.877L842.909 102.608L913.757 206ZM1072.39 4.39999V48.752H1020.55V206H974.47V48.752H922.63V4.39999H1072.39ZM1210.88 206V96.56L1133.12 206H1098.56V4.39999H1144.64V113.84L1222.4 4.39999H1256.96V206H1210.88ZM1373.82 4.39999C1393.59 4.39999 1410.3 11.12 1423.93 24.56C1437.56 38 1444.38 54.32 1444.38 73.52C1444.38 92.72 1437.56 109.04 1423.93 122.48C1410.3 135.92 1393.59 142.64 1373.82 142.64H1343.58V206H1297.5V4.39999H1373.82ZM1373.82 99.44C1380.92 99.44 1386.78 96.944 1391.39 91.952C1395.99 86.96 1398.3 80.816 1398.3 73.52C1398.3 66.224 1395.99 60.08 1391.39 55.088C1386.78 50.096 1380.92 47.6 1373.82 47.6H1343.58V99.44H1373.82ZM1642.46 179.792C1622.11 199.952 1597.34 210.032 1568.16 210.032C1538.98 210.032 1514.21 199.952 1493.86 179.792C1473.5 159.632 1463.33 134.768 1463.33 105.2C1463.33 75.632 1473.5 50.768 1493.86 30.608C1514.21 10.448 1538.98 0.367987 1568.16 0.367987C1597.34 0.367987 1622.11 10.448 1642.46 30.608C1662.82 50.768 1672.99 75.632 1672.99 105.2C1672.99 134.768 1662.82 159.632 1642.46 179.792ZM1526.11 148.4C1537.44 159.536 1551.46 165.104 1568.16 165.104C1584.86 165.104 1598.78 159.536 1609.92 148.4C1621.25 137.264 1626.91 122.864 1626.91 105.2C1626.91 87.536 1621.25 73.136 1609.92 62C1598.78 50.864 1584.86 45.296 1568.16 45.296C1551.46 45.296 1537.44 50.864 1526.11 62C1514.98 73.136 1509.41 87.536 1509.41 105.2C1509.41 122.864 1514.98 137.264 1526.11 148.4ZM1829.93 101.456C1846.44 112.016 1854.7 127.184 1854.7 146.96C1854.7 164.432 1848.46 178.64 1835.98 189.584C1823.5 200.528 1808.04 206 1789.61 206H1704.94V4.39999H1783.85C1801.9 4.39999 1816.97 9.77599 1829.06 20.528C1841.35 31.088 1847.5 44.912 1847.5 62C1847.5 78.128 1841.64 91.28 1829.93 101.456ZM1783.85 47.6H1751.02V83.312H1783.85C1789.03 83.312 1793.26 81.68 1796.52 78.416C1799.78 74.96 1801.42 70.64 1801.42 65.456C1801.42 60.272 1799.78 56.048 1796.52 52.784C1793.26 49.328 1789.03 47.6 1783.85 47.6ZM1789.61 162.8C1795.37 162.8 1799.98 161.072 1803.43 157.616C1806.89 153.968 1808.62 149.264 1808.62 143.504C1808.62 137.744 1806.89 133.136 1803.43 129.68C1799.98 126.032 1795.37 124.208 1789.61 124.208H1751.02V162.8H1789.61ZM2011.78 206L2001.7 174.32H1926.82L1916.74 206H1866.34L1934.89 4.39999H1993.64L2062.18 206H2011.78ZM1940.65 131.12H1987.88L1964.26 57.104L1940.65 131.12ZM2194.81 4.39999H2240.89V206H2194.81V125.936H2131.45V206H2085.37V4.39999H2131.45V81.584H2194.81V4.39999ZM2393.82 206V96.56L2316.06 206H2281.5V4.39999H2327.58V113.84L2405.34 4.39999H2439.9V206H2393.82ZM2526.52 161.648H2607.16V206H2480.44V4.39999H2605.72V48.752H2526.52V82.16H2598.52V125.936H2526.52V161.648Z" fill="white"/>
</svg>
