<svg width="1843" height="136" viewBox="0 0 1843 136" fill="none" xmlns="http://www.w3.org/2000/svg">
<path d="M25.555 108.58H74.95V133H0.0250009V3.49999H25.555V108.58ZM182.317 133L174.547 109.69H122.932L115.162 133H87.597L132.922 3.49999H164.557L210.067 133H182.317ZM131.072 85.825H166.592L148.832 32.915L131.072 85.825ZM303.566 3.49999H329.096V133H309.671L254.171 53.82V133H228.641V3.49999H248.066L303.566 82.495V3.49999ZM410.549 3.49999C428.309 3.49999 443.109 9.72833 454.949 22.185C466.912 34.6417 472.894 49.9967 472.894 68.25C472.894 86.5033 466.912 101.858 454.949 114.315C443.109 126.772 428.309 133 410.549 133H359.119V3.49999H410.549ZM410.549 108.58C421.772 108.58 430.899 104.88 437.929 97.48C444.959 89.9567 448.474 80.2133 448.474 68.25C448.474 56.2867 444.959 46.605 437.929 39.205C430.899 31.6817 421.772 27.92 410.549 27.92H384.649V108.58H410.549ZM536.521 135.59C523.695 135.59 512.903 132.753 504.146 127.08C495.39 121.283 489.223 113.452 485.646 103.585L507.476 90.82C512.533 104.017 522.461 110.615 537.261 110.615C544.415 110.615 549.656 109.32 552.986 106.73C556.316 104.14 557.981 100.872 557.981 96.925C557.981 92.3617 555.946 88.8467 551.876 86.38C547.806 83.79 540.53 81.015 530.046 78.055C524.25 76.3283 519.316 74.6017 515.246 72.875C511.3 71.1483 507.291 68.8667 503.221 66.03C499.275 63.07 496.253 59.37 494.156 54.93C492.06 50.49 491.011 45.31 491.011 39.39C491.011 27.6733 495.143 18.3617 503.406 11.455C511.793 4.42499 521.845 0.909991 533.561 0.909991C544.045 0.909991 553.233 3.49999 561.126 8.67999C569.143 13.7367 575.371 20.8283 579.811 29.955L558.351 42.35C553.171 31.25 544.908 25.7 533.561 25.7C528.258 25.7 524.065 26.9333 520.981 29.4C518.021 31.7433 516.541 34.8267 516.541 38.65C516.541 42.72 518.206 46.05 521.536 48.64C524.99 51.1067 531.526 53.82 541.146 56.78C545.093 58.0133 548.053 59 550.026 59.74C552.123 60.3567 554.898 61.405 558.351 62.885C561.928 64.2417 564.641 65.5367 566.491 66.77C568.465 68.0033 570.685 69.6683 573.151 71.765C575.618 73.8617 577.468 76.02 578.701 78.24C580.058 80.46 581.168 83.1733 582.031 86.38C583.018 89.4633 583.511 92.855 583.511 96.555C583.511 108.518 579.133 118.015 570.376 125.045C561.743 132.075 550.458 135.59 536.521 135.59ZM666.679 135.59C647.193 135.59 631.098 129.115 618.394 116.165C605.691 103.215 599.339 87.2433 599.339 68.25C599.339 49.1333 605.691 33.1617 618.394 20.335C631.098 7.38499 647.193 0.909991 666.679 0.909991C678.396 0.909991 689.188 3.68499 699.054 9.23499C709.044 14.6617 716.814 22.0617 722.364 31.435L700.349 44.2C697.143 38.4033 692.579 33.9017 686.659 30.695C680.739 27.365 674.079 25.7 666.679 25.7C654.099 25.7 643.924 29.6467 636.154 37.54C628.508 45.4333 624.684 55.67 624.684 68.25C624.684 80.7067 628.508 90.8817 636.154 98.775C643.924 106.668 654.099 110.615 666.679 110.615C674.079 110.615 680.739 109.012 686.659 105.805C692.703 102.475 697.266 97.9733 700.349 92.3L722.364 105.065C716.814 114.438 709.106 121.9 699.239 127.45C689.373 132.877 678.519 135.59 666.679 135.59ZM826.755 133L818.985 109.69H767.37L759.6 133H732.035L777.36 3.49999H808.995L854.505 133H826.755ZM775.51 85.825H811.03L793.27 32.915L775.51 85.825ZM921.365 3.49999C933.821 3.49999 944.305 7.69333 952.815 16.08C961.325 24.4667 965.58 34.765 965.58 46.975C965.58 59.185 961.325 69.4833 952.815 77.87C944.305 86.2567 933.821 90.45 921.365 90.45H898.61V133H873.08V3.49999H921.365ZM921.365 66.585C926.791 66.585 931.293 64.735 934.87 61.035C938.446 57.2117 940.235 52.525 940.235 46.975C940.235 41.3017 938.446 36.615 934.87 32.915C931.293 29.215 926.791 27.365 921.365 27.365H898.61V66.585H921.365ZM1013.73 108.58H1068.31V133H988.201V3.49999H1067.38V27.92H1013.73V55.485H1062.76V79.535H1013.73V108.58ZM1362.72 135.59C1343.23 135.59 1327.14 129.115 1314.44 116.165C1301.73 103.215 1295.38 87.2433 1295.38 68.25C1295.38 49.1333 1301.73 33.1617 1314.44 20.335C1327.14 7.38499 1343.23 0.909991 1362.72 0.909991C1374.44 0.909991 1385.23 3.68499 1395.1 9.23499C1405.09 14.6617 1412.86 22.0617 1418.41 31.435L1396.39 44.2C1393.18 38.4033 1388.62 33.9017 1382.7 30.695C1376.78 27.365 1370.12 25.7 1362.72 25.7C1350.14 25.7 1339.97 29.6467 1332.2 37.54C1324.55 45.4333 1320.73 55.67 1320.73 68.25C1320.73 80.7067 1324.55 90.8817 1332.2 98.775C1339.97 106.668 1350.14 110.615 1362.72 110.615C1370.12 110.615 1376.78 109.012 1382.7 105.805C1388.74 102.475 1393.31 97.9733 1396.39 92.3L1418.41 105.065C1412.86 114.438 1405.15 121.9 1395.28 127.45C1385.41 132.877 1374.56 135.59 1362.72 135.59ZM1547.79 116.165C1534.72 129.115 1518.81 135.59 1500.06 135.59C1481.31 135.59 1465.4 129.115 1452.33 116.165C1439.38 103.092 1432.9 87.12 1432.9 68.25C1432.9 49.38 1439.38 33.47 1452.33 20.52C1465.4 7.44666 1481.31 0.909991 1500.06 0.909991C1518.81 0.909991 1534.72 7.44666 1547.79 20.52C1560.86 33.47 1567.4 49.38 1567.4 68.25C1567.4 87.12 1560.86 103.092 1547.79 116.165ZM1470.27 98.775C1478.29 106.668 1488.22 110.615 1500.06 110.615C1511.9 110.615 1521.83 106.668 1529.84 98.775C1537.86 90.7583 1541.87 80.5833 1541.87 68.25C1541.87 55.9167 1537.86 45.7417 1529.84 37.725C1521.83 29.7083 1511.9 25.7 1500.06 25.7C1488.22 25.7 1478.29 29.7083 1470.27 37.725C1462.26 45.7417 1458.25 55.9167 1458.25 68.25C1458.25 80.5833 1462.26 90.7583 1470.27 98.775ZM1666.27 3.49999H1691.8V133H1672.37L1616.87 53.82V133H1591.34V3.49999H1610.77L1666.27 82.495V3.49999ZM1783.24 135.59C1763.75 135.59 1747.66 129.115 1734.96 116.165C1722.25 103.215 1715.9 87.2433 1715.9 68.25C1715.9 49.1333 1722.25 33.1617 1734.96 20.335C1747.66 7.38499 1763.75 0.909991 1783.24 0.909991C1794.96 0.909991 1805.75 3.68499 1815.62 9.23499C1825.61 14.6617 1833.38 22.0617 1838.93 31.435L1816.91 44.2C1813.7 38.4033 1809.14 33.9017 1803.22 30.695C1797.3 27.365 1790.64 25.7 1783.24 25.7C1770.66 25.7 1760.49 29.6467 1752.72 37.54C1745.07 45.4333 1741.25 55.67 1741.25 68.25C1741.25 80.7067 1745.07 90.8817 1752.72 98.775C1760.49 106.668 1770.66 110.615 1783.24 110.615C1790.64 110.615 1797.3 109.012 1803.22 105.805C1809.26 102.475 1813.83 97.9733 1816.91 92.3L1838.93 105.065C1833.38 114.438 1825.67 121.9 1815.8 127.45C1805.93 132.877 1795.08 135.59 1783.24 135.59ZM1886.14 108.58H1940.71V133H1860.61V3.49999H1939.79V27.92H1886.14V55.485H1935.16V79.535H1886.14V108.58ZM2012.99 3.49999C2025.45 3.49999 2035.93 7.69333 2044.44 16.08C2052.95 24.4667 2057.21 34.765 2057.21 46.975C2057.21 59.185 2052.95 69.4833 2044.44 77.87C2035.93 86.2567 2025.45 90.45 2012.99 90.45H1990.24V133H1964.71V3.49999H2012.99ZM2012.99 66.585C2018.42 66.585 2022.92 64.735 2026.5 61.035C2030.08 57.2117 2031.86 52.525 2031.86 46.975C2031.86 41.3017 2030.08 36.615 2026.5 32.915C2022.92 29.215 2018.42 27.365 2012.99 27.365H1990.24V66.585H2012.99ZM2163.14 3.49999V27.92H2128.17V133H2102.64V27.92H2067.86V3.49999H2163.14Z" fill="white"/>
</svg>
