<svg width="1726" height="203" viewBox="0 0 1726 203" fill="none" xmlns="http://www.w3.org/2000/svg">
<path opacity="0.048426" d="M188.88 0.399986V202H142.8V84.784L90.672 170.32H85.488L33.36 84.784V202H-12.72V0.399986H33.36L88.08 89.968L142.8 0.399986H188.88ZM357.69 202L347.61 170.32H272.73L262.65 202H212.25L280.794 0.399986H339.546L408.09 202H357.69ZM286.554 127.12H333.786L310.17 53.104L286.554 127.12ZM552.296 0.399986V44.752H500.456V202H454.376V44.752H402.536V0.399986H552.296ZM624.548 157.648H705.188V202H578.468V0.399986H703.748V44.752H624.548V78.16H696.548V121.936H624.548V157.648ZM813.506 0.399986C833.282 0.399986 849.986 7.11999 863.618 20.56C877.25 34 884.066 50.32 884.066 69.52C884.066 88.72 877.25 105.04 863.618 118.48C849.986 131.92 833.282 138.64 813.506 138.64H783.266V202H737.186V0.399986H813.506ZM813.506 95.44C820.61 95.44 826.466 92.944 831.074 87.952C835.682 82.96 837.986 76.816 837.986 69.52C837.986 62.224 835.682 56.08 831.074 51.088C826.466 46.096 820.61 43.6 813.506 43.6H783.266V95.44H813.506ZM1025.38 202V92.56L947.621 202H913.061V0.399986H959.141V109.84L1036.9 0.399986H1071.46V202H1025.38ZM1240.16 202L1230.08 170.32H1155.2L1145.12 202H1094.72L1163.26 0.399986H1222.01L1290.56 202H1240.16ZM1169.02 127.12H1216.25L1192.64 53.104L1169.02 127.12ZM1302.16 202V158.8C1313.3 160.528 1321.65 158.8 1327.22 153.616C1332.79 148.432 1335.57 137.872 1335.57 121.936V0.399986H1474.96V202H1428.88V44.752H1381.65V120.208C1381.65 137.296 1379.25 151.792 1374.45 163.696C1369.84 175.6 1363.51 184.336 1355.44 189.904C1347.57 195.28 1339.22 198.928 1330.39 200.848C1321.75 202.768 1312.34 203.152 1302.16 202ZM1515.5 202V0.399986H1561.58V63.76H1591.82C1611.59 63.76 1628.3 70.48 1641.93 83.92C1655.56 97.36 1662.38 113.68 1662.38 132.88C1662.38 152.08 1655.56 168.4 1641.93 181.84C1628.3 195.28 1611.59 202 1591.82 202H1515.5ZM1679.66 202V0.399986H1725.74V202H1679.66ZM1561.58 158.8H1591.82C1598.92 158.8 1604.78 156.304 1609.39 151.312C1613.99 146.32 1616.3 140.176 1616.3 132.88C1616.3 125.584 1613.99 119.44 1609.39 114.448C1604.78 109.456 1598.92 106.96 1591.82 106.96H1561.58V158.8Z" fill="white"/>
</svg>
