<svg width="1920" height="245" viewBox="0 0 1920 245" fill="none" xmlns="http://www.w3.org/2000/svg">
<path opacity="0.048426" d="M138.92 4.39999V206H92.84V48.752H32.36V206H-13.72V4.39999H138.92ZM255.913 4.39999C275.689 4.39999 292.393 11.12 306.025 24.56C319.657 38 326.473 54.32 326.473 73.52C326.473 92.72 319.657 109.04 306.025 122.48C292.393 135.92 275.689 142.64 255.913 142.64H225.673V206H179.593V4.39999H255.913ZM255.913 99.44C263.017 99.44 268.873 96.944 273.481 91.952C278.089 86.96 280.393 80.816 280.393 73.52C280.393 66.224 278.089 60.08 273.481 55.088C268.873 50.096 263.017 47.6 255.913 47.6H225.673V99.44H255.913ZM524.557 179.792C504.205 199.952 479.437 210.032 450.253 210.032C421.069 210.032 396.301 199.952 375.949 179.792C355.597 159.632 345.421 134.768 345.421 105.2C345.421 75.632 355.597 50.768 375.949 30.608C396.301 10.448 421.069 0.367987 450.253 0.367987C479.437 0.367987 504.205 10.448 524.557 30.608C544.909 50.768 555.085 75.632 555.085 105.2C555.085 134.768 544.909 159.632 524.557 179.792ZM408.205 148.4C419.533 159.536 433.549 165.104 450.253 165.104C466.957 165.104 480.877 159.536 492.013 148.4C503.341 137.264 509.005 122.864 509.005 105.2C509.005 87.536 503.341 73.136 492.013 62C480.877 50.864 466.957 45.296 450.253 45.296C433.549 45.296 419.533 50.864 408.205 62C397.069 73.136 391.501 87.536 391.501 105.2C391.501 122.864 397.069 137.264 408.205 148.4ZM699.35 206V96.56L621.59 206H587.03V4.39999H633.11V113.84L710.87 4.39999H745.43V206H699.35ZM894.035 101.744C912.275 111.92 921.395 127.664 921.395 148.976C921.395 167.408 914.387 182.192 900.371 193.328C886.355 204.464 868.499 210.032 846.803 210.032C808.979 210.032 783.443 194.096 770.195 162.224L809.939 139.472C816.083 157.712 828.371 166.832 846.803 166.832C865.811 166.832 875.315 159.728 875.315 145.52C875.315 131.312 865.715 124.208 846.515 124.208H820.883V83.312H840.755C858.995 83.312 868.115 76.688 868.115 63.44C868.115 50.192 860.339 43.568 844.787 43.568C829.811 43.568 819.155 51.248 812.819 66.608L773.363 43.856C787.955 14.864 811.763 0.367987 844.787 0.367987C865.139 0.367987 881.747 5.83999 894.611 16.784C907.667 27.536 914.195 41.936 914.195 59.984C914.195 77.456 907.475 91.376 894.035 101.744ZM1075.3 101.456C1091.82 112.016 1100.07 127.184 1100.07 146.96C1100.07 164.432 1093.83 178.64 1081.35 189.584C1068.87 200.528 1053.42 206 1034.98 206H950.311V4.39999H1029.22C1047.27 4.39999 1062.34 9.77599 1074.44 20.528C1086.73 31.088 1092.87 44.912 1092.87 62C1092.87 78.128 1087.02 91.28 1075.3 101.456ZM1029.22 47.6H996.391V83.312H1029.22C1034.41 83.312 1038.63 81.68 1041.9 78.416C1045.16 74.96 1046.79 70.64 1046.79 65.456C1046.79 60.272 1045.16 56.048 1041.9 52.784C1038.63 49.328 1034.41 47.6 1029.22 47.6ZM1034.98 162.8C1040.74 162.8 1045.35 161.072 1048.81 157.616C1052.26 153.968 1053.99 149.264 1053.99 143.504C1053.99 137.744 1052.26 133.136 1048.81 129.68C1045.35 126.032 1040.74 124.208 1034.98 124.208H996.391V162.8H1034.98ZM1299.49 179.792C1279.14 199.952 1254.37 210.032 1225.19 210.032C1196.01 210.032 1171.24 199.952 1150.89 179.792C1130.53 159.632 1120.36 134.768 1120.36 105.2C1120.36 75.632 1130.53 50.768 1150.89 30.608C1171.24 10.448 1196.01 0.367987 1225.19 0.367987C1254.37 0.367987 1279.14 10.448 1299.49 30.608C1319.85 50.768 1330.02 75.632 1330.02 105.2C1330.02 134.768 1319.85 159.632 1299.49 179.792ZM1183.14 148.4C1194.47 159.536 1208.49 165.104 1225.19 165.104C1241.89 165.104 1255.81 159.536 1266.95 148.4C1278.28 137.264 1283.94 122.864 1283.94 105.2C1283.94 87.536 1278.28 73.136 1266.95 62C1255.81 50.864 1241.89 45.296 1225.19 45.296C1208.49 45.296 1194.47 50.864 1183.14 62C1172.01 73.136 1166.44 87.536 1166.44 105.2C1166.44 122.864 1172.01 137.264 1183.14 148.4ZM1511.65 161.648H1533.25V244.592H1487.17V206H1386.37V244.592H1340.29V161.648H1360.74C1371.3 146.48 1376.58 124.208 1376.58 94.832V4.39999H1511.65V161.648ZM1409.7 161.648H1465.57V47.6H1422.66V95.408C1422.66 124.016 1418.34 146.096 1409.7 161.648ZM1657.1 210.032C1626.95 210.032 1601.9 200.048 1581.93 180.08C1562.15 159.92 1552.27 134.96 1552.27 105.2C1552.27 75.44 1562.15 50.576 1581.93 30.608C1601.9 10.448 1626.95 0.367987 1657.1 0.367987C1675.15 0.367987 1691.85 4.59199 1707.21 13.04C1722.57 21.296 1734.67 32.624 1743.5 47.024L1703.75 70.064C1699.34 62.192 1693 56.144 1684.75 51.92C1676.49 47.504 1667.27 45.296 1657.1 45.296C1639.24 45.296 1624.94 50.768 1614.19 61.712C1603.63 72.656 1598.35 87.152 1598.35 105.2C1598.35 123.248 1603.63 137.744 1614.19 148.688C1624.94 159.632 1639.24 165.104 1657.1 165.104C1667.27 165.104 1676.49 162.896 1684.75 158.48C1693.19 154.064 1699.53 148.016 1703.75 140.336L1743.5 163.376C1734.86 177.776 1722.86 189.2 1707.5 197.648C1692.14 205.904 1675.34 210.032 1657.1 210.032ZM1906.45 4.39999V48.752H1854.61V206H1808.53V48.752H1756.69V4.39999H1906.45ZM2057.62 101.456C2074.13 112.016 2082.38 127.184 2082.38 146.96C2082.38 164.432 2076.14 178.64 2063.66 189.584C2051.18 200.528 2035.73 206 2017.3 206H1932.62V4.39999H2011.54C2029.58 4.39999 2044.66 9.77599 2056.75 20.528C2069.04 31.088 2075.18 44.912 2075.18 62C2075.18 78.128 2069.33 91.28 2057.62 101.456ZM2011.54 47.6H1978.7V83.312H2011.54C2016.72 83.312 2020.94 81.68 2024.21 78.416C2027.47 74.96 2029.1 70.64 2029.1 65.456C2029.1 60.272 2027.47 56.048 2024.21 52.784C2020.94 49.328 2016.72 47.6 2011.54 47.6ZM2017.3 162.8C2023.06 162.8 2027.66 161.072 2031.12 157.616C2034.58 153.968 2036.3 149.264 2036.3 143.504C2036.3 137.744 2034.58 133.136 2031.12 129.68C2027.66 126.032 2023.06 124.208 2017.3 124.208H1978.7V162.8H2017.3ZM2281.81 179.792C2261.46 199.952 2236.69 210.032 2207.5 210.032C2178.32 210.032 2153.55 199.952 2133.2 179.792C2112.85 159.632 2102.67 134.768 2102.67 105.2C2102.67 75.632 2112.85 50.768 2133.2 30.608C2153.55 10.448 2178.32 0.367987 2207.5 0.367987C2236.69 0.367987 2261.46 10.448 2281.81 30.608C2302.16 50.768 2312.34 75.632 2312.34 105.2C2312.34 134.768 2302.16 159.632 2281.81 179.792ZM2165.46 148.4C2176.78 159.536 2190.8 165.104 2207.5 165.104C2224.21 165.104 2238.13 159.536 2249.26 148.4C2260.59 137.264 2266.26 122.864 2266.26 105.2C2266.26 87.536 2260.59 73.136 2249.26 62C2238.13 50.864 2224.21 45.296 2207.5 45.296C2190.8 45.296 2176.78 50.864 2165.46 62C2154.32 73.136 2148.75 87.536 2148.75 105.2C2148.75 122.864 2154.32 137.264 2165.46 148.4Z" fill="black"/>
</svg>
