<svg width="160" height="50" viewBox="0 0 160 50" fill="none" xmlns="http://www.w3.org/2000/svg">
<path fill-rule="evenodd" clip-rule="evenodd" d="M74.8419 41.019V31.8811L78.3663 27.7542L87.1819 41.019H74.8419ZM4.51868 41.019V30.1433C4.51868 23.9194 4.40124 19.411 4.12331 14.6855L4.29555 14.6382C6.17191 18.6888 8.66025 22.9827 11.2556 27.1504L19.8506 41.019H4.51868ZM114.467 41.019H104.728V28.5909H119.177V24.5824H104.728V12.7451H120V8.69581H99.9289V41.019H92.8266L81.7902 24.5824L95.2445 8.69581H89.2853L77.9279 22.7551C76.9806 23.9852 76.0033 25.3112 74.9972 26.757H74.8419V8.69581H70.031V41.019H64.3158L49.1143 0L32.7829 41.019H27.9002V8.69581H23.3815V24.368C23.3815 30.2025 23.4885 34.7609 23.9321 39.7652L23.8186 39.8244C22.0545 35.9909 19.8989 32.0364 17.1496 27.6464L5.23634 8.69581H0V44H37.3733L49.1143 14.5079L60.0437 44H119.56L114.467 41.019Z" fill="white"/>
<path fill-rule="evenodd" clip-rule="evenodd" d="M0 50H34.8097L35.3575 48.6297L36 47H0V50Z" fill="white"/>
<path fill-rule="evenodd" clip-rule="evenodd" d="M61 47L61.5962 48.6284L62.0987 50H113.534L119 47H61Z" fill="white"/>
<path fill-rule="evenodd" clip-rule="evenodd" d="M124.487 47L119 50H126.476H146.912C146.912 50 148.74 48.9951 151 47H126.476H124.487Z" fill="white"/>
<path fill-rule="evenodd" clip-rule="evenodd" d="M152.01 38.4491C151.387 39.5036 150.681 40.3467 149.985 41.0243H132.008V12.8783C132.008 12.8783 137.727 12.1456 142.72 12.8783C147.712 13.6111 152.713 17.1108 153.915 22.6499C155.129 28.189 154.179 34.7826 152.01 38.4491ZM158.595 19.64C155.524 13.1239 150.69 9.37862 142.561 8.3123C134.431 7.2578 126.773 9.21185 126.773 9.21185V41.0243H120L125.071 44H126.773H153.77H153.927C154.475 43.3434 155.016 42.6395 155.531 41.8765C159.314 36.26 161.648 26.1548 158.595 19.64Z" fill="white"/>
</svg>
